<?xml version="1.0" encoding="UTF-8" standalone="no"?>
<!DOCTYPE svg PUBLIC "-//W3C//DTD SVG 1.1//EN"
 "http://www.w3.org/Graphics/SVG/1.1/DTD/svg11.dtd">
<!-- Generated by graphviz version 2.47.0 (20210316.0004)
 -->
<!-- Title: dependencies Pages: 1 -->
<svg width="1832pt" height="284pt"
 viewBox="0.00 0.00 1832.00 284.00" xmlns="http://www.w3.org/2000/svg" xmlns:xlink="http://www.w3.org/1999/xlink">
<g id="graph0" class="graph" transform="scale(1 1) rotate(0) translate(4 280)">
<title>dependencies</title>
<polygon fill="white" stroke="transparent" points="-4,4 -4,-280 1828,-280 1828,4 -4,4"/>
<text text-anchor="start" x="891.01" y="-42.4" font-family="Times-12" font-weight="bold" font-size="14.00">Legend</text>
<polygon fill="#ffffb3" stroke="transparent" points="678,-10 678,-30 698,-30 698,-10 678,-10"/>
<text text-anchor="start" x="701.63" y="-15.4" font-family="Times-12" font-size="14.00"> &#160;Declarations</text>
<polygon fill="#8dd3c7" stroke="transparent" points="791,-10 791,-30 811,-30 811,-10 791,-10"/>
<text text-anchor="start" x="814.73" y="-15.4" font-family="Times-12" font-size="14.00"> &#160;Module</text>
<polygon fill="#80b1d3" stroke="transparent" points="877,-10 877,-30 897,-30 897,-10 877,-10"/>
<text text-anchor="start" x="900.78" y="-15.4" font-family="Times-12" font-size="14.00"> &#160;Bootstrap</text>
<polygon fill="#fdb462" stroke="transparent" points="974,-10 974,-30 994,-30 994,-10 974,-10"/>
<text text-anchor="start" x="997.67" y="-15.4" font-family="Times-12" font-size="14.00"> &#160;Providers</text>
<polygon fill="#fb8072" stroke="transparent" points="1070,-10 1070,-30 1090,-30 1090,-10 1070,-10"/>
<text text-anchor="start" x="1093.73" y="-15.4" font-family="Times-12" font-size="14.00"> &#160;Exports</text>
<g id="clust1" class="cluster">
<title>cluster_AppModule</title>
<polygon fill="none" stroke="black" stroke-dasharray="1,5" points="8,-70 8,-268 1816,-268 1816,-70 8,-70"/>
</g>
<g id="clust14" class="cluster">
<title>cluster_AppModule_imports</title>
<polygon fill="none" stroke="black" points="1664,-78 1664,-130 1808,-130 1808,-78 1664,-78"/>
</g>
<g id="clust16" class="cluster">
<title>cluster_AppModule_bootstrap</title>
<polygon fill="none" stroke="black" points="858,-208 858,-260 982,-260 982,-208 858,-208"/>
</g>
<g id="clust2" class="cluster">
<title>cluster_AppModule_declarations</title>
<polygon fill="none" stroke="black" points="16,-78 16,-130 1656,-130 1656,-78 16,-78"/>
</g>
<!-- AppComponent -->
<g id="node1" class="node">
<title>AppComponent</title>
<polygon fill="#ffffb3" stroke="black" points="1647.94,-122 1542.06,-122 1542.06,-86 1647.94,-86 1647.94,-122"/>
<text text-anchor="middle" x="1595" y="-99.8" font-family="Times,serif" font-size="14.00">AppComponent</text>
</g>
<!-- AppModule -->
<g id="node12" class="node">
<title>AppModule</title>
<polygon fill="#8dd3c7" stroke="black" points="961.66,-187 958.66,-191 937.66,-191 934.66,-187 878.34,-187 878.34,-151 961.66,-151 961.66,-187"/>
<text text-anchor="middle" x="920" y="-164.8" font-family="Times,serif" font-size="14.00">AppModule</text>
</g>
<!-- AppComponent&#45;&gt;AppModule -->
<g id="edge1" class="edge">
<title>AppComponent&#45;&gt;AppModule</title>
<path fill="none" stroke="black" d="M1595,-122.28C1595,-143.32 1595,-175 1595,-175 1595,-175 971.71,-175 971.71,-175"/>
<polygon fill="black" stroke="black" points="971.71,-171.5 961.71,-175 971.71,-178.5 971.71,-171.5"/>
</g>
<!-- CardComponent -->
<g id="node2" class="node">
<title>CardComponent</title>
<polygon fill="#ffffb3" stroke="black" points="1524.05,-122 1415.95,-122 1415.95,-86 1524.05,-86 1524.05,-122"/>
<text text-anchor="middle" x="1470" y="-99.8" font-family="Times,serif" font-size="14.00">CardComponent</text>
</g>
<!-- CardComponent&#45;&gt;AppModule -->
<g id="edge2" class="edge">
<title>CardComponent&#45;&gt;AppModule</title>
<path fill="none" stroke="black" d="M1470,-122.11C1470,-141.34 1470,-169 1470,-169 1470,-169 971.79,-169 971.79,-169"/>
<polygon fill="black" stroke="black" points="971.79,-165.5 961.79,-169 971.79,-172.5 971.79,-165.5"/>
</g>
<!-- CreditcardComponent -->
<g id="node3" class="node">
<title>CreditcardComponent</title>
<polygon fill="#ffffb3" stroke="black" points="1398.42,-122 1257.58,-122 1257.58,-86 1398.42,-86 1398.42,-122"/>
<text text-anchor="middle" x="1328" y="-99.8" font-family="Times,serif" font-size="14.00">CreditcardComponent</text>
</g>
<!-- CreditcardComponent&#45;&gt;AppModule -->
<g id="edge3" class="edge">
<title>CreditcardComponent&#45;&gt;AppModule</title>
<path fill="none" stroke="black" d="M1328,-122.02C1328,-139.37 1328,-163 1328,-163 1328,-163 971.75,-163 971.75,-163"/>
<polygon fill="black" stroke="black" points="971.75,-159.5 961.75,-163 971.75,-166.5 971.75,-159.5"/>
</g>
<!-- DashboardComponent -->
<g id="node4" class="node">
<title>DashboardComponent</title>
<polygon fill="#ffffb3" stroke="black" points="1239.97,-122 1098.03,-122 1098.03,-86 1239.97,-86 1239.97,-122"/>
<text text-anchor="middle" x="1169" y="-99.8" font-family="Times,serif" font-size="14.00">DashboardComponent</text>
</g>
<!-- DashboardComponent&#45;&gt;AppModule -->
<g id="edge4" class="edge">
<title>DashboardComponent&#45;&gt;AppModule</title>
<path fill="none" stroke="black" d="M1169,-122.24C1169,-137.57 1169,-157 1169,-157 1169,-157 971.68,-157 971.68,-157"/>
<polygon fill="black" stroke="black" points="971.68,-153.5 961.68,-157 971.68,-160.5 971.68,-153.5"/>
</g>
<!-- EmiCalculatorComponent -->
<g id="node5" class="node">
<title>EmiCalculatorComponent</title>
<polygon fill="#ffffb3" stroke="black" points="1080.48,-122 917.52,-122 917.52,-86 1080.48,-86 1080.48,-122"/>
<text text-anchor="middle" x="999" y="-99.8" font-family="Times,serif" font-size="14.00">EmiCalculatorComponent</text>
</g>
<!-- EmiCalculatorComponent&#45;&gt;AppModule -->
<g id="edge5" class="edge">
<title>EmiCalculatorComponent&#45;&gt;AppModule</title>
<path fill="none" stroke="black" d="M939.67,-122.11C939.67,-122.11 939.67,-140.99 939.67,-140.99"/>
<polygon fill="black" stroke="black" points="936.17,-140.99 939.67,-150.99 943.17,-140.99 936.17,-140.99"/>
</g>
<!-- LoginComponent -->
<g id="node6" class="node">
<title>LoginComponent</title>
<polygon fill="#ffffb3" stroke="black" points="899.28,-122 784.72,-122 784.72,-86 899.28,-86 899.28,-122"/>
<text text-anchor="middle" x="842" y="-99.8" font-family="Times,serif" font-size="14.00">LoginComponent</text>
</g>
<!-- LoginComponent&#45;&gt;AppModule -->
<g id="edge6" class="edge">
<title>LoginComponent&#45;&gt;AppModule</title>
<path fill="none" stroke="black" d="M888.78,-122.11C888.78,-122.11 888.78,-140.99 888.78,-140.99"/>
<polygon fill="black" stroke="black" points="885.28,-140.99 888.78,-150.99 892.28,-140.99 885.28,-140.99"/>
</g>
<!-- NavbarComponent -->
<g id="node7" class="node">
<title>NavbarComponent</title>
<polygon fill="#ffffb3" stroke="black" points="766.03,-122 643.97,-122 643.97,-86 766.03,-86 766.03,-122"/>
<text text-anchor="middle" x="705" y="-99.8" font-family="Times,serif" font-size="14.00">NavbarComponent</text>
</g>
<!-- NavbarComponent&#45;&gt;AppModule -->
<g id="edge7" class="edge">
<title>NavbarComponent&#45;&gt;AppModule</title>
<path fill="none" stroke="black" d="M705,-122.24C705,-137.57 705,-157 705,-157 705,-157 868.29,-157 868.29,-157"/>
<polygon fill="black" stroke="black" points="868.29,-160.5 878.29,-157 868.29,-153.5 868.29,-160.5"/>
</g>
<!-- OffersComponent -->
<g id="node8" class="node">
<title>OffersComponent</title>
<polygon fill="#ffffb3" stroke="black" points="625.58,-122 508.42,-122 508.42,-86 625.58,-86 625.58,-122"/>
<text text-anchor="middle" x="567" y="-99.8" font-family="Times,serif" font-size="14.00">OffersComponent</text>
</g>
<!-- OffersComponent&#45;&gt;AppModule -->
<g id="edge8" class="edge">
<title>OffersComponent&#45;&gt;AppModule</title>
<path fill="none" stroke="black" d="M567,-122.02C567,-139.37 567,-163 567,-163 567,-163 868.12,-163 868.12,-163"/>
<polygon fill="black" stroke="black" points="868.12,-166.5 878.12,-163 868.12,-159.5 868.12,-166.5"/>
</g>
<!-- ProfileComponent -->
<g id="node9" class="node">
<title>ProfileComponent</title>
<polygon fill="#ffffb3" stroke="black" points="490.93,-122 371.07,-122 371.07,-86 490.93,-86 490.93,-122"/>
<text text-anchor="middle" x="431" y="-99.8" font-family="Times,serif" font-size="14.00">ProfileComponent</text>
</g>
<!-- ProfileComponent&#45;&gt;AppModule -->
<g id="edge9" class="edge">
<title>ProfileComponent&#45;&gt;AppModule</title>
<path fill="none" stroke="black" d="M431,-122.11C431,-141.34 431,-169 431,-169 431,-169 868.31,-169 868.31,-169"/>
<polygon fill="black" stroke="black" points="868.31,-172.5 878.31,-169 868.31,-165.5 868.31,-172.5"/>
</g>
<!-- SignupComponent -->
<g id="node10" class="node">
<title>SignupComponent</title>
<polygon fill="#ffffb3" stroke="black" points="353.51,-122 232.49,-122 232.49,-86 353.51,-86 353.51,-122"/>
<text text-anchor="middle" x="293" y="-99.8" font-family="Times,serif" font-size="14.00">SignupComponent</text>
</g>
<!-- SignupComponent&#45;&gt;AppModule -->
<g id="edge10" class="edge">
<title>SignupComponent&#45;&gt;AppModule</title>
<path fill="none" stroke="black" d="M293,-122.28C293,-143.32 293,-175 293,-175 293,-175 867.89,-175 867.89,-175"/>
<polygon fill="black" stroke="black" points="867.89,-178.5 877.89,-175 867.89,-171.5 867.89,-178.5"/>
</g>
<!-- UpdatecreditdetailsComponent -->
<g id="node11" class="node">
<title>UpdatecreditdetailsComponent</title>
<polygon fill="#ffffb3" stroke="black" points="214.18,-122 23.82,-122 23.82,-86 214.18,-86 214.18,-122"/>
<text text-anchor="middle" x="119" y="-99.8" font-family="Times,serif" font-size="14.00">UpdatecreditdetailsComponent</text>
</g>
<!-- UpdatecreditdetailsComponent&#45;&gt;AppModule -->
<g id="edge11" class="edge">
<title>UpdatecreditdetailsComponent&#45;&gt;AppModule</title>
<path fill="none" stroke="black" d="M119,-122.25C119,-145.02 119,-181 119,-181 119,-181 868.34,-181 868.34,-181"/>
<polygon fill="black" stroke="black" points="868.34,-184.5 878.34,-181 868.34,-177.5 868.34,-184.5"/>
</g>
<!-- AppComponent  -->
<g id="node14" class="node">
<title>AppComponent </title>
<polygon fill="#80b1d3" stroke="black" points="974.44,-252 865.56,-252 865.56,-216 974.44,-216 974.44,-252"/>
<text text-anchor="middle" x="920" y="-229.8" font-family="Times,serif" font-size="14.00">AppComponent </text>
</g>
<!-- AppModule&#45;&gt;AppComponent  -->
<g id="edge13" class="edge">
<title>AppModule&#45;&gt;AppComponent </title>
<path fill="none" stroke="black" stroke-dasharray="1,5" d="M920,-187.11C920,-187.11 920,-205.99 920,-205.99"/>
<polygon fill="black" stroke="black" points="916.5,-205.99 920,-215.99 923.5,-205.99 916.5,-205.99"/>
</g>
<!-- AppRoutingModule -->
<g id="node13" class="node">
<title>AppRoutingModule</title>
<polygon fill="#8dd3c7" stroke="black" points="1800.27,-122 1797.27,-126 1776.27,-126 1773.27,-122 1671.73,-122 1671.73,-86 1800.27,-86 1800.27,-122"/>
<text text-anchor="middle" x="1736" y="-99.8" font-family="Times,serif" font-size="14.00">AppRoutingModule</text>
</g>
<!-- AppRoutingModule&#45;&gt;AppModule -->
<g id="edge12" class="edge">
<title>AppRoutingModule&#45;&gt;AppModule</title>
<path fill="none" stroke="black" d="M1736,-122.25C1736,-145.02 1736,-181 1736,-181 1736,-181 971.87,-181 971.87,-181"/>
<polygon fill="black" stroke="black" points="971.87,-177.5 961.87,-181 971.87,-184.5 971.87,-177.5"/>
</g>
</g>
</svg>
